{
	"asset":{
		"generator":"Khronos glTF Blender I/O v4.2.60",
		"version":"2.0"
	},
	"extensionsUsed":[
		"KHR_materials_specular"
	],
	"scene":0,
	"scenes":[
		{
			"name":"Scene",
			"nodes":[
				0
			]
		}
	],
	"nodes":[
		{
			"mesh":0,
			"name":"uploads_files_72531_Winged_Victory (1)"
		}
	],
	"materials":[
		{
			"doubleSided":true,
			"extensions":{
				"KHR_materials_specular":{
					"specularFactor":0
				}
			},
			"name":"Winged_Victory_Stamdard",
			"pbrMetallicRoughness":{
				"baseColorFactor":[
					0.800000011920929,
					0.800000011920929,
					0.800000011920929,
					1
				],
				"metallicFactor":0
			}
		}
	],
	"meshes":[
		{
			"name":"uploads_files_72531_Winged_Victory (1)",
			"primitives":[
				{
					"attributes":{
						"POSITION":0,
						"NORMAL":1,
						"TEXCOORD_0":2,
						"TANGENT":3
					},
					"indices":4,
					"material":0
				}
			]
		}
	],
	"accessors":[
		{
			"bufferView":0,
			"componentType":5126,
			"count":18455,
			"max":[
				1.0550025701522827,
				4.042600154876709,
				0.708952009677887
			],
			"min":[
				-0.94624263048172,
				0.0006356372032314539,
				-1.0866259336471558
			],
			"type":"VEC3"
		},
		{
			"bufferView":1,
			"componentType":5126,
			"count":18455,
			"type":"VEC3"
		},
		{
			"bufferView":2,
			"componentType":5126,
			"count":18455,
			"type":"VEC2"
		},
		{
			"bufferView":3,
			"componentType":5126,
			"count":18455,
			"type":"VEC4"
		},
		{
			"bufferView":4,
			"componentType":5123,
			"count":100338,
			"type":"SCALAR"
		}
	],
	"bufferViews":[
		{
			"buffer":0,
			"byteLength":221460,
			"byteOffset":0,
			"target":34962
		},
		{
			"buffer":0,
			"byteLength":221460,
			"byteOffset":221460,
			"target":34962
		},
		{
			"buffer":0,
			"byteLength":147640,
			"byteOffset":442920,
			"target":34962
		},
		{
			"buffer":0,
			"byteLength":295280,
			"byteOffset":590560,
			"target":34962
		},
		{
			"buffer":0,
			"byteLength":200676,
			"byteOffset":885840,
			"target":34963
		}
	],
	"buffers":[
		{
			"byteLength":1086516,
			"uri":"lucy.bin"
		}
	]
}
