{
	"asset":{
		"generator":"Khronos glTF Blender I/O v4.3.47",
		"version":"2.0"
	},
	"scene":0,
	"scenes":[
		{
			"name":"Scene",
			"nodes":[
				0
			]
		}
	],
	"nodes":[
		{
			"mesh":0,
			"name":"stanford-bunny"
		}
	],
	"meshes":[
		{
			"name":"stanford-bunny",
			"primitives":[
				{
					"attributes":{
						"POSITION":0,
						"NORMAL":1,
						"TEXCOORD_0":2,
						"TANGENT":3
					},
					"indices":4
				}
			]
		}
	],
	"accessors":[
		{
			"bufferView":0,
			"componentType":5126,
			"count":38164,
			"max":[
				0.0610090009868145,
				0.061874013394117355,
				0.15433400869369507
			],
			"min":[
				-0.0946900025010109,
				-0.05879999324679375,
				-2.37002772962569e-09
			],
			"type":"VEC3"
		},
		{
			"bufferView":1,
			"componentType":5126,
			"count":38164,
			"type":"VEC3"
		},
		{
			"bufferView":2,
			"componentType":5126,
			"count":38164,
			"type":"VEC2"
		},
		{
			"bufferView":3,
			"componentType":5126,
			"count":38164,
			"type":"VEC4"
		},
		{
			"bufferView":4,
			"componentType":5123,
			"count":208353,
			"type":"SCALAR"
		}
	],
	"bufferViews":[
		{
			"buffer":0,
			"byteLength":457968,
			"byteOffset":0,
			"target":34962
		},
		{
			"buffer":0,
			"byteLength":457968,
			"byteOffset":457968,
			"target":34962
		},
		{
			"buffer":0,
			"byteLength":305312,
			"byteOffset":915936,
			"target":34962
		},
		{
			"buffer":0,
			"byteLength":610624,
			"byteOffset":1221248,
			"target":34962
		},
		{
			"buffer":0,
			"byteLength":416706,
			"byteOffset":1831872,
			"target":34963
		}
	],
	"buffers":[
		{
			"byteLength":2248580,
			"uri":"StanfordBunny.bin"
		}
	]
}
